<svg width="96" height="25" viewBox="0 0 96 25" fill="none" xmlns="http://www.w3.org/2000/svg">
<g clip-path="url(#clip0_5_85)">
<path d="M17.707 11.4102C17.707 13.4258 17.3477 15.1172 16.6289 16.4844C15.918 17.8438 14.8711 18.8398 13.4883 19.4727L17.6133 24.0781H12.9609L9.82031 20.2344H9.55078C6.92578 20.2344 4.91016 19.4727 3.50391 17.9492C2.09766 16.4258 1.39453 14.2383 1.39453 11.3867C1.39453 8.53516 2.09766 6.35938 3.50391 4.85938C4.91797 3.35156 6.94141 2.59766 9.57422 2.59766C12.207 2.59766 14.2188 3.35547 15.6094 4.87109C17.0078 6.38672 17.707 8.56641 17.707 11.4102ZM5.20312 11.4102C5.20312 13.3242 5.56641 14.7656 6.29297 15.7344C7.01953 16.7031 8.10547 17.1875 9.55078 17.1875C12.4492 17.1875 13.8984 15.2617 13.8984 11.4102C13.8984 7.55078 12.457 5.62109 9.57422 5.62109C8.12891 5.62109 7.03906 6.10938 6.30469 7.08594C5.57031 8.05469 5.20312 9.49609 5.20312 11.4102ZM38.1853 20H34.0486L31.7283 11C31.6423 10.6797 31.4939 10.0195 31.283 9.01953C31.0798 8.01172 30.9627 7.33594 30.9314 6.99219C30.8845 7.41406 30.7673 8.09375 30.5798 9.03125C30.3923 9.96094 30.2478 10.625 30.1462 11.0234L27.8377 20H23.7127L19.3416 2.86719H22.9158L25.1072 12.2188C25.49 13.9453 25.7673 15.4414 25.9392 16.707C25.9861 16.2617 26.0916 15.5742 26.2556 14.6445C26.4275 13.707 26.5877 12.9805 26.7361 12.4648L29.2322 2.86719H32.6658L35.1619 12.4648C35.2712 12.8945 35.408 13.5508 35.572 14.4336C35.7361 15.3164 35.8611 16.0742 35.947 16.707C36.0252 16.0977 36.1502 15.3398 36.322 14.4336C36.4939 13.5195 36.6502 12.7812 36.7908 12.2188L38.9705 2.86719H42.5447L38.1853 20ZM54.8081 20H44.9409V2.86719H54.8081V5.84375H48.5737V9.60547H54.3745V12.582H48.5737V17H54.8081V20ZM62.2669 10.4727H63.4388C64.5872 10.4727 65.4348 10.2812 65.9817 9.89844C66.5286 9.51562 66.802 8.91406 66.802 8.09375C66.802 7.28125 66.5208 6.70312 65.9583 6.35938C65.4036 6.01562 64.5403 5.84375 63.3684 5.84375H62.2669V10.4727ZM62.2669 13.4258V20H58.6341V2.86719H63.6263C65.9544 2.86719 67.677 3.29297 68.7942 4.14453C69.9114 4.98828 70.47 6.27344 70.47 8C70.47 9.00781 70.1927 9.90625 69.638 10.6953C69.0833 11.4766 68.2981 12.0898 67.2825 12.5352C69.8606 16.3867 71.5403 18.875 72.3216 20H68.2903L64.2005 13.4258H62.2669ZM72.5616 6.89844H76.4756L78.9483 14.2695C79.1592 14.9102 79.3037 15.668 79.3819 16.543H79.4522C79.5381 15.7383 79.7061 14.9805 79.9561 14.2695L82.3819 6.89844H86.2139L80.6709 21.6758C80.1631 23.043 79.4366 24.0664 78.4912 24.7461C77.5537 25.4258 76.4561 25.7656 75.1983 25.7656C74.5811 25.7656 73.9756 25.6992 73.3819 25.5664V22.7305C73.8116 22.832 74.2803 22.8828 74.7881 22.8828C75.4209 22.8828 75.9717 22.6875 76.4405 22.2969C76.917 21.9141 77.2881 21.332 77.5537 20.5508L77.7647 19.9062L72.5616 6.89844Z" fill="white"/>
</g>
<defs>
<clipPath id="clip0_5_85">
<rect width="96" height="32" fill="white"/>
</clipPath>
</defs>
</svg>
